<svg width="140" height="136" viewBox="0 0 140 136" fill="none" xmlns="http://www.w3.org/2000/svg">
<path d="M138.97 4.64016L110.697 1L1.21896 4.28435L1 130.486L29.2728 134.098V130.54L138.751 130.814L138.97 4.64016Z" fill="black" stroke="black" stroke-width="2" stroke-linecap="round" stroke-linejoin="round"/>
<path d="M138.965 4.64037L138.746 130.842L29.2676 134.099L29.4865 7.89734C65.9702 6.80256 102.481 5.70778 138.965 4.64037Z" fill="#FF0098" stroke="black" stroke-width="2" stroke-linecap="round" stroke-linejoin="round"/>
<path d="M121.97 33.2208L106.39 31.2148L46.0611 33.0247L45.9404 102.569L61.5204 104.56V102.599L121.85 102.75L121.97 33.2208Z" fill="black" stroke="black" stroke-width="2" stroke-linecap="round" stroke-linejoin="round"/>
<path d="M121.967 33.2209L121.847 102.765L61.5176 104.56L61.6382 35.0157C81.7429 34.4124 101.863 33.8091 121.967 33.2209Z" fill="#FF0098" stroke="black" stroke-width="2" stroke-linecap="round" stroke-linejoin="round"/>
</svg>
