<svg width="163" height="156" viewBox="0 0 163 156" fill="none" xmlns="http://www.w3.org/2000/svg">
<path d="M137.291 77.7137C137.291 120.086 88.0045 154.062 88.0045 154.062C88.0045 154.062 52.5684 150.16 44.9929 146.897C19.3912 135.854 1 110.389 1 77.7137C1 35.3409 31.5075 1 69.1342 1C82.3685 1 108.335 6.95546 108.335 6.95546C108.335 6.95546 137.291 50.2638 137.291 77.7137Z" fill="black" stroke="black" stroke-width="2" stroke-linecap="round" stroke-linejoin="round"/>
<path d="M95.1216 154.405C131.617 154.405 161.202 121.06 161.202 79.9274C161.202 38.7946 131.617 5.44989 95.1216 5.44989C58.6263 5.44989 29.041 38.7946 29.041 79.9274C29.041 121.06 58.6263 154.405 95.1216 154.405Z" fill="#A4FF00" stroke="black" stroke-width="2" stroke-linecap="round" stroke-linejoin="round"/>
<path d="M95.6675 77.3489L131.628 36.0714" stroke="black" stroke-width="2" stroke-linecap="round" stroke-linejoin="round"/>
<path d="M47.9819 79.9266C47.9819 50.5829 69.0885 26.7838 95.1465 26.7838C121.204 26.7838 142.311 50.5829 142.311 79.9266C142.311 109.27 121.204 133.069 95.1465 133.069" stroke="black" stroke-width="2" stroke-linecap="round" stroke-linejoin="round"/>
<path d="M95.1217 89.4635C101.057 89.4635 105.869 84.0389 105.869 77.3472C105.869 70.6556 101.057 65.231 95.1217 65.231C89.1862 65.231 84.3745 70.6556 84.3745 77.3472C84.3745 84.0389 89.1862 89.4635 95.1217 89.4635Z" stroke="black" stroke-width="2" stroke-linecap="round" stroke-linejoin="round"/>
</svg>
