<svg width="206" height="104" viewBox="0 0 206 104" fill="none" xmlns="http://www.w3.org/2000/svg">
<path d="M77.2156 31.3777L61.5975 29.3668L1.12095 31.1811L1 100.895L16.6181 102.891V100.926L77.0947 101.077L77.2156 31.3777Z" fill="black" stroke="black" stroke-width="2" stroke-linecap="round" stroke-linejoin="round"/>
<path d="M77.2128 31.3778L77.0918 101.092L16.6152 102.891L16.7362 33.177C36.89 32.5722 57.059 31.9675 77.2128 31.3778Z" fill="#1EFFFA" stroke="black" stroke-width="2" stroke-linecap="round" stroke-linejoin="round"/>
<path d="M141.123 17.2366L125.505 15.2257L65.0282 17.04L64.9072 86.7544L80.5253 88.7501V86.7846L141.002 86.9358L141.123 17.2366Z" fill="black" stroke="black" stroke-width="2" stroke-linecap="round" stroke-linejoin="round"/>
<path d="M141.12 17.2367L140.999 86.9511L80.5225 88.7503L80.6434 19.0359C100.797 18.4311 120.966 17.8263 141.12 17.2367Z" fill="#1EFFFA" stroke="black" stroke-width="2" stroke-linecap="round" stroke-linejoin="round"/>
<path d="M205.005 3.01085L189.387 1L128.911 2.8143L128.79 72.5287L144.408 74.5244V72.5589L204.884 72.7101L205.005 3.01085Z" fill="black" stroke="black" stroke-width="2" stroke-linecap="round" stroke-linejoin="round"/>
<path d="M205.002 3.01099L204.881 72.7254L144.405 74.5245L144.526 4.81016C164.68 4.2054 184.849 3.60063 205.002 3.01099Z" fill="#1EFFFA" stroke="black" stroke-width="2" stroke-linecap="round" stroke-linejoin="round"/>
</svg>
