<svg width="217" height="46" viewBox="0 0 217 46" fill="none" xmlns="http://www.w3.org/2000/svg">
<path fill-rule="evenodd" clip-rule="evenodd" d="M11.6705 35.5532L5.83594 46H45.5557L39.7211 35.5532H11.6705Z" fill="white"/>
<path fill-rule="evenodd" clip-rule="evenodd" d="M19.8631 0L0 35.5532H11.6719L25.6977 10.4472L19.8631 0Z" fill="white"/>
<path fill-rule="evenodd" clip-rule="evenodd" d="M31.5338 0L25.6992 10.4472L39.7245 35.5532H51.3969L31.5338 0Z" fill="white"/>
<path fill-rule="evenodd" clip-rule="evenodd" d="M25.6967 20.6985C29.186 20.6985 32.0144 23.6217 32.0144 27.228C32.0144 30.8342 29.186 33.7574 25.6967 33.7574C22.2073 33.7574 19.3789 30.8342 19.3789 27.228C19.3789 23.6217 22.2073 20.6985 25.6967 20.6985Z" fill="white"/>
<path fill-rule="evenodd" clip-rule="evenodd" d="M70.8083 7.07324C75.9762 7.07324 79.3091 10.0536 79.6085 14.8914H75.9013C75.7141 12.1049 73.8042 10.4793 70.7711 10.4793C67.3632 10.4793 65.154 12.2598 65.154 15.0074C65.154 17.2526 66.3894 18.6073 68.9361 19.2265L73.3923 20.3099C77.8112 21.3553 80.0581 23.8324 80.0581 27.7798C80.0581 32.8115 76.276 36.0233 70.509 36.0233C65.0037 36.0233 61.3342 33.0438 61.1094 28.2441H64.8542C64.9292 30.915 67.1012 32.6181 70.509 32.6181C74.104 32.6181 76.3882 30.8761 76.3882 28.0896C76.3882 25.8833 75.2272 24.4897 72.6433 23.8705L68.1871 22.826C63.7682 21.7811 61.4837 19.149 61.4837 15.1242C61.4837 10.3249 65.2285 7.07324 70.8083 7.07324Z" fill="white"/>
<path fill-rule="evenodd" clip-rule="evenodd" d="M82.1914 35.521V7.07373H85.7115V19.5359C86.8724 17.4846 89.082 16.0917 91.9281 16.0917C96.609 16.0917 98.8559 19.1495 98.8559 23.9874V35.5595H95.3355V24.8C95.3355 20.9681 93.5755 19.42 90.9543 19.42C87.5464 19.42 85.7115 21.9745 85.7115 25.2257V35.521H82.1914Z" fill="white"/>
<path fill-rule="evenodd" clip-rule="evenodd" d="M113.574 27.3928V26.3872L108.893 26.7736C105.785 27.0834 104.512 28.3218 104.512 30.1797C104.512 32.1925 105.935 33.1981 108.219 33.1981C111.552 33.1981 113.574 30.9538 113.574 27.3928ZM100.953 30.2955C100.953 26.8128 103.462 24.6446 107.768 24.2967L113.535 23.8325V23.2899C113.535 20.1166 111.7 18.9942 109.229 18.9942C106.27 18.9942 104.585 20.3489 104.585 22.6326H101.515C101.515 18.6844 104.66 16.0913 109.379 16.0913C113.91 16.0913 116.981 18.5684 116.981 23.6776V35.5591H113.985L113.61 32.5017C112.674 34.6695 110.165 36.0234 107.207 36.0234C103.275 36.0234 100.953 33.7405 100.953 30.2955Z" fill="white"/>
<path fill-rule="evenodd" clip-rule="evenodd" d="M130.458 19.8076H128.885C125.552 19.8076 123.493 21.897 123.493 25.5355V35.5595H119.973V16.6723H123.268L123.493 19.5359C124.242 17.5624 126.077 16.2466 128.586 16.2466C129.222 16.2466 129.747 16.324 130.458 16.4789V19.8076Z" fill="white"/>
<path fill-rule="evenodd" clip-rule="evenodd" d="M145.067 26.0387C145.067 22.1679 142.857 19.3818 139.262 19.3818C135.667 19.3818 133.57 22.1679 133.57 26.0387C133.57 29.9471 135.667 32.7341 139.262 32.7341C142.857 32.7341 145.067 29.9861 145.067 26.0387ZM130.012 26.1546C130.012 20.3489 133.27 16.0917 138.7 16.0917C141.508 16.0917 143.868 17.369 145.104 19.6908V7.07324H148.586V35.5595H145.44L145.141 32.1149C143.942 34.7079 141.471 36.0233 138.55 36.0233C133.232 36.0233 130.012 31.921 130.012 26.1546Z" fill="white"/>
<path fill-rule="evenodd" clip-rule="evenodd" d="M154.09 24.3738H164.65C164.65 21.2386 162.666 19.1492 159.557 19.1492C156.487 19.1492 154.539 21.0452 154.09 24.3738ZM150.605 26.1156C150.605 20.1938 154.238 16.0916 159.555 16.0916C164.761 16.0916 168.169 19.8074 168.169 25.4189V26.7737L154.013 26.8126C154.275 30.7985 156.298 33.0048 159.78 33.0048C162.514 33.0048 164.312 31.8435 164.911 29.6761H168.206C167.308 33.7403 164.237 36.0232 159.705 36.0232C154.313 36.0232 150.605 31.9984 150.605 26.1156Z" fill="white"/>
<path fill-rule="evenodd" clip-rule="evenodd" d="M186.369 16.6333V35.5594H183.223L182.849 32.695C181.8 34.6698 179.366 36.0236 176.67 36.0236C172.401 36.0236 170.004 33.0442 170.004 28.3993V16.6333H173.524V27.1995C173.524 31.2637 175.209 32.8118 177.906 32.8118C181.126 32.8118 182.886 30.683 182.886 26.6188V16.6333H186.369Z" fill="white"/>
<path fill-rule="evenodd" clip-rule="evenodd" d="M189.586 35.5591V16.633H192.732L193.069 19.1102C194.005 17.3301 195.952 16.0913 198.536 16.0913C201.382 16.0913 203.404 17.562 204.341 19.9232C205.202 17.562 207.411 16.0913 210.257 16.0913C214.452 16.0913 216.998 18.8008 216.998 23.1739V35.5591H213.553V24.064C213.553 21.0845 211.943 19.3814 209.471 19.3814C206.812 19.3814 205.052 21.316 205.052 24.3357V35.5591H201.57V24.0255C201.57 21.0455 199.997 19.4199 197.525 19.4199C194.866 19.4199 193.106 21.316 193.106 24.3357V35.5591H189.586Z" fill="white"/>
</svg>
